<?xml version="1.0" encoding="UTF-8"?>
<!-- Uploaded to: SVG Repo, www.svgrepo.com, Generator: SVG Repo Mixer Tools -->
<svg xmlns="http://www.w3.org/2000/svg" width="800px" height="800px" viewBox="0 0 14 14" role="img" aria-hidden="true">
  <defs>
    <filter id="pencilTextureFilter" x="0%" y="0%" width="100%" height="100%">
      <feTurbulence type="fractalNoise" baseFrequency="4" numOctaves="4" stitchTiles="stitch" result="f1"></feTurbulence>
      <feColorMatrix type="matrix" values="0 0 0 0 0, 0 0 0 0 0, 0 0 0 0 0, 0 0 0 -1.5 1.5" result="f2"></feColorMatrix>
      <feComposite operator="in" in="SourceGraphic" in2="f2" result="f3"></feComposite>
    </filter>
  </defs>
  <g filter="url(#pencilTextureFilter)" fill="#03a9f4">
    <path filter="url(#pencilTextureFilter)" d="M2.11 10.51L7.6 8.05l-1.2-2.1-4.89 3.54z"></path>
    <path filter="url(#pencilTextureFilter)" d="M12.49 9.49L7.6 5.95l-1.2 2.1 5.49 2.46zM5.2 11.8c-.33 0-.6.27-.6.6v.6h4.8v-.6c0-.33-.27-.6-.6-.6H5.2z"></path>
    <path filter="url(#pencilTextureFilter)" d="M6.4 1l-.6 6h2.4l-.6-6z"></path>
  </g>
  <path filter="url(#pencilTextureFilter)" fill="#4fc3f7" d="M6.4 1l-.54 5.34L7 7V1zm-4.29 9.51L7 8.32V7l-5.19 3zm10.38-1.02L8.14 6.34 7 7l5.19 3z"></path>
  <g filter="url(#pencilTextureFilter)" fill="#455a64" transform="matrix(.3 0 0 .3 -.2 -.5)">
    <circle cx="24" cy="25" r="2"></circle>
    <path d="M26 30.3l-2-.9-2 .9V41h4z"></path>
  </g>
</svg>
